<!DOCTYPE svg PUBLIC "-//W3C//DTD SVG 1.1//EN" "http://www.w3.org/Graphics/SVG/1.1/DTD/svg11.dtd">

<!-- Upload#19ae51SVG Repo, www.svgrepo.com, Transformed by: SVG Repo Mixer Tools -->
<svg fill="#ff6652" height="800px" width="800px" version="1.1" id="Layer_1" xmlns="http://www.w3.org/2000/svg" xmlns:xlink="http://www.w3.org/1999/xlink" viewBox="0 0 512 512" xml:space="preserve">

<g id="SVGRepo_bgCarrier" stroke-width="0"/>

<g id="SVGRepo_tracerCarrier" stroke-linecap="round" stroke-linejoin="round"/>

<g id="SVGRepo_iconCarrier"> <g> <g> <path d="M374.775,111.482H338.33V12.864C338.33,5.759,332.57,0,325.466,0s-12.864,5.759-12.864,12.864v98.618H205.828V12.864 C205.828,5.759,200.067,0,192.964,0c-7.104,0-12.864,5.759-12.864,12.864v98.618h-42.877c-17.499,0-31.736,14.237-31.736,31.736 v30.012c0,16.192,12.193,29.581,27.877,31.493l17.016,110.107c5.128,33.281,32.334,57.803,65.523,59.797v26.623 c0,15.999,11.852,29.274,27.234,31.515v66.37c0,7.105,5.761,12.864,12.864,12.864c7.104,0,12.864-5.759,12.864-12.864v-66.37 c15.382-2.24,27.234-15.516,27.234-31.515v-26.623c33.187-1.994,60.394-26.516,65.522-59.791l17.017-110.113 c15.684-1.912,27.877-15.301,27.877-31.493v-30.013C406.511,125.719,392.274,111.482,374.775,111.482z M270.368,401.251 c0,3.377-2.741,6.123-6.111,6.123H247.74c-3.369,0-6.111-2.747-6.111-6.123v-26.475h28.739V401.251z M380.783,173.231 c0,3.313-2.695,6.008-6.008,6.008h-21.651c-7.104,0-12.864,5.759-12.864,12.864c0,6.917,5.464,12.543,12.307,12.836 L336.19,310.914c-3.404,22.096-22.105,38.134-44.467,38.134h-8.49h-54.468h-8.49c-22.363,0-41.064-16.037-44.468-38.139 l-16.372-105.942H277.33c7.104,0,12.864-5.759,12.864-12.864c0-7.105-5.761-12.864-12.864-12.864H137.222 c-3.313,0-6.008-2.695-6.008-6.008v-30.013c0-3.313,2.695-6.008,6.008-6.008h237.553c3.313,0,6.008,2.695,6.008,6.008V173.231z"/> </g> </g> <g> <g> <path d="M317.641,179.239h-2.038h-2.6c-7.104,0-12.864,5.759-12.864,12.864c0,7.105,5.761,12.864,12.864,12.864h2.6h2.038 c7.104,0,12.864-5.759,12.864-12.864C330.505,184.998,324.744,179.239,317.641,179.239z"/> </g> </g> <g> <g> <path d="M297.165,232.844h-79.759c-7.104,0-12.864,5.759-12.864,12.864c0,7.105,5.761,12.864,12.864,12.864h79.759 c7.104,0,12.864-5.759,12.864-12.864C310.029,238.604,304.268,232.844,297.165,232.844z"/> </g> </g> <g> <g> <path d="M283.232,283.877h-51.882c-7.104,0-12.864,5.759-12.864,12.864c0,7.105,5.761,12.864,12.864,12.864h51.882 c7.104,0,12.864-5.759,12.864-12.864C296.097,289.636,290.336,283.877,283.232,283.877z"/> </g> </g> </g>

</svg>