<!DOCTYPE svg PUBLIC "-//W3C//DTD SVG 1.1//EN" "http://www.w3.org/Graphics/SVG/1.1/DTD/svg11.dtd">

<!-- Upload#19ae51SVG Repo, www.svgrepo.com, Transformed by: SVG Repo Mixer Tools -->
<svg fill="#ff6652" width="800px" height="800px" viewBox="-1.5 0 19 19" xmlns="http://www.w3.org/2000/svg" class="cf-icon-svg">

<g id="SVGRepo_bgCarrier" stroke-width="0"/>

<g id="SVGRepo_tracerCarrier" stroke-linecap="round" stroke-linejoin="round"/>

<g id="SVGRepo_iconCarrier">

<path d="M2.461 7.02a1.61 1.61 0 0 1 1.61 1.611v2.456h7.857V8.63a1.61 1.61 0 1 1 1.988 1.566v4.634a.476.476 0 0 1-.475.475H2.559a.476.476 0 0 1-.475-.475v-4.634A1.61 1.61 0 0 1 2.46 7.02zm1.059-.894a2.68 2.68 0 0 0-.227-.084V4.669A1.111 1.111 0 0 1 4.4 3.56h7.198a1.111 1.111 0 0 1 1.108 1.109v1.373a2.679 2.679 0 0 0-.227.084 2.717 2.717 0 0 0-1.66 2.505v1.347H5.18V8.631a2.72 2.72 0 0 0-1.66-2.505z"/>

</g>

</svg>