<!DOCTYPE svg PUBLIC "-//W3C//DTD SVG 1.1//EN" "http://www.w3.org/Graphics/SVG/1.1/DTD/svg11.dtd">

<!-- Uploaded to: SVG Repo, www.svgrepo.com, Transformed by: SVG Repo Mixer Tools -->
<svg width="800px" height="800px" viewBox="0 0 24 24" fill="none" xmlns="http://www.w3.org/2000/svg">

<g id="SVGRepo_bgCarrier" stroke-width="0"/>#19ae51#19ae51

<g id="SVGRepo_tracerCarrier" stroke-linecap="round" stroke-linejoin="round"/>

<g id="SVGRepo_iconCarrier"> <path fill-rule="evenodd" clip-rule="evenodd" d="M5.27097 8.214C6.02074 6.312 6.92262 5 8.96427 5H14.4369C16.4766 5 17.3795 6.312 18.1302 8.214L18.88 10.249C19.4387 10.2559 19.9519 10.5661 20.2284 11.064C20.3911 11.3476 20.4763 11.6709 20.4751 12V14.624C20.4824 15.2367 20.1808 15.8098 19.6776 16.14C19.4382 16.2929 19.162 16.3739 18.88 16.374H4.52022C4.23827 16.3739 3.96199 16.2929 3.72267 16.14C3.21939 15.8098 2.91786 15.2367 2.92512 14.624V12C2.92406 11.6713 3.00927 11.3483 3.17179 11.065C3.44833 10.5671 3.96155 10.2569 4.52022 10.25L5.27097 8.214Z" stroke="#ff6652" stroke-width="1.5" stroke-linecap="round" stroke-linejoin="round"/> <path d="M6.86629 16.375C6.86629 15.9608 6.53051 15.625 6.11629 15.625C5.70208 15.625 5.36629 15.9608 5.36629 16.375H6.86629ZM6.11629 17.688H5.36629C5.36629 17.6958 5.36641 17.7036 5.36666 17.7114L6.11629 17.688ZM4.91899 19L4.89219 19.7495C4.90986 19.7502 4.92754 19.7502 4.9452 19.7496L4.91899 19ZM3.72267 17.687L4.47228 17.711C4.47254 17.703 4.47267 17.695 4.47267 17.687L3.72267 17.687ZM4.47267 16.14C4.47267 15.7258 4.13688 15.39 3.72267 15.39C3.30845 15.39 2.97267 15.7258 2.97267 16.14H4.47267ZM4.52022 9.49902C4.106 9.49902 3.77022 9.83481 3.77022 10.249C3.77022 10.6632 4.106 10.999 4.52022 10.999V9.49902ZM18.88 10.999C19.2942 10.999 19.63 10.6632 19.63 10.249C19.63 9.83481 19.2942 9.49902 18.88 9.49902V10.999ZM18.0349 16.374C18.0349 15.9598 17.6991 15.624 17.2849 15.624C16.8707 15.624 16.5349 15.9598 16.5349 16.374H18.0349ZM17.2849 17.687L18.0335 17.7336C18.0344 17.7181 18.0349 17.7026 18.0349 17.687H17.2849ZM17.8602 18.8173L18.2561 18.1803L18.2561 18.1803L17.8602 18.8173ZM19.1033 18.8173L18.7074 18.1803L18.7074 18.1803L19.1033 18.8173ZM19.6785 17.687H18.9285C18.9285 17.7026 18.929 17.7181 18.93 17.7336L19.6785 17.687ZM20.4285 16.14C20.4285 15.7258 20.0928 15.39 19.6785 15.39C19.2643 15.39 18.9285 15.7258 18.9285 16.14H20.4285ZM5.85012 12.75C5.4359 12.75 5.10012 13.0858 5.10012 13.5C5.10012 13.9142 5.4359 14.25 5.85012 14.25V12.75ZM6.82512 14.25C7.23933 14.25 7.57512 13.9142 7.57512 13.5C7.57512 13.0858 7.23933 12.75 6.82512 12.75V14.25ZM16.5751 12.75C16.1609 12.75 15.8251 13.0858 15.8251 13.5C15.8251 13.9142 16.1609 14.25 16.5751 14.25V12.75ZM17.5501 14.25C17.9643 14.25 18.3001 13.9142 18.3001 13.5C18.3001 13.0858 17.9643 12.75 17.5501 12.75V14.25ZM5.36629 16.375V17.688H6.86629V16.375H5.36629ZM5.36666 17.7114C5.37622 18.0175 5.14582 18.2416 4.89278 18.2505L4.9452 19.7496C6.05927 19.7106 6.90017 18.7608 6.86593 17.6646L5.36666 17.7114ZM4.94579 18.2505C4.69273 18.2415 4.46248 18.0171 4.47228 17.711L2.97305 17.663C2.93793 18.7592 3.77813 19.7097 4.89219 19.7495L4.94579 18.2505ZM4.47267 17.687V16.14H2.97267V17.687H4.47267ZM4.52022 10.999H18.88V9.49902H4.52022V10.999ZM16.5349 16.374V17.687H18.0349V16.374H16.5349ZM16.5364 17.6404C16.4912 18.3667 16.8425 19.0678 17.4642 19.4543L18.2561 18.1803C18.1138 18.0919 18.0217 17.9219 18.0335 17.7336L16.5364 17.6404ZM17.4642 19.4543C18.0887 19.8424 18.8747 19.8424 19.4992 19.4543L18.7074 18.1803C18.5678 18.2671 18.3957 18.2671 18.2561 18.1803L17.4642 19.4543ZM19.4992 19.4543C20.121 19.0678 20.4723 18.3667 20.4271 17.6404L18.93 17.7336C18.9417 17.9219 18.8497 18.0919 18.7074 18.1803L19.4992 19.4543ZM20.4285 17.687V16.14H18.9285V17.687H20.4285ZM5.85012 14.25H6.82512V12.75H5.85012V14.25ZM16.5751 14.25H17.5501V12.75H16.5751V14.25Z" fill="#ff6652"/> </g>

</svg>